<svg width="490" height="160" viewBox="0 0 490 160" fill="none" xmlns="http://www.w3.org/2000/svg">
<path d="M243.632 136.482H241.374L238.817 136.289C237.638 136.192 236.458 135.994 235.279 135.699C233.997 135.404 232.818 134.911 231.735 134.321C230.657 133.823 229.671 133.142 228.786 132.354C227.902 131.566 227.119 130.585 226.621 129.405V154.373C226.621 157.52 224.46 159.681 221.313 159.681C218.166 159.681 216 157.52 216 154.373V91.3613C216 88.2143 218.166 86.0485 221.313 86.0485H223.672C225.441 86.0485 226.621 87.2331 226.621 89.0023V92.0477C228.685 89.0023 231.242 87.0348 234.089 86.1451C236.941 85.2656 240.19 84.7673 243.627 84.7673C246.972 84.7673 250.017 85.5553 252.869 87.0297C255.716 88.5041 258.075 90.4665 260.14 92.9323C262.204 95.3879 263.775 98.24 264.954 101.285C266.037 104.331 266.627 107.478 266.627 110.625C266.627 113.868 266.037 117.015 264.954 120.061C263.876 123.208 262.305 125.963 260.236 128.419C258.172 130.874 255.813 132.745 252.961 134.22C250.119 135.791 247.074 136.482 243.632 136.482ZM241.273 94.8947C236.158 94.8947 232.427 96.2725 230.164 99.028C227.902 101.875 226.722 105.708 226.722 110.625C226.722 112.887 227.017 114.951 227.709 116.822C228.39 118.785 229.376 120.457 230.657 121.835C231.933 123.304 233.413 124.392 235.279 125.175C237.048 125.963 239.015 126.355 241.273 126.355C243.042 126.355 244.811 126.065 246.586 125.475C249.733 124.199 252.086 122.232 253.561 119.578C255.035 116.924 255.823 113.975 255.823 110.63C255.823 108.469 255.523 106.405 254.837 104.539C254.156 102.673 253.169 101.001 251.888 99.5263C250.612 98.0519 249.041 96.969 247.267 96.0844C245.498 95.2913 243.53 94.8947 241.273 94.8947Z" fill="#F5F1EC"/>
<path d="M317.493 104.631V130.086C317.493 133.33 315.428 135.399 312.281 135.399H309.922C308.153 135.399 306.969 134.22 306.969 132.451V129.598C305.891 130.874 304.711 131.957 303.333 132.842C301.956 133.727 300.486 134.51 299.007 135.008C297.533 135.598 295.962 135.989 294.289 136.284C292.616 136.574 291.045 136.675 289.368 136.675C287.11 136.675 284.945 136.375 282.682 135.791C280.425 135.104 278.457 134.22 276.688 132.944C274.817 131.668 273.343 130.092 272.265 128.221C271.177 126.355 270.592 124.092 270.592 121.535C270.592 118.978 271.182 116.817 272.265 114.946C273.343 113.08 274.817 111.606 276.591 110.33C278.361 109.054 280.328 108.164 282.586 107.574C284.848 106.985 287.11 106.695 289.368 106.695H293.104C298.026 106.695 301.559 106.593 303.725 106.4C305.886 106.298 306.963 105.81 306.963 105.124V104.636C306.963 102.968 306.674 101.392 306.084 100.014C305.398 98.7383 304.61 97.5588 303.527 96.6742C302.449 95.7896 301.168 95.0015 299.693 94.5084C298.219 94.0203 296.745 93.7204 295.072 93.7204C293.501 93.7204 292.027 94.0152 290.649 94.5084C289.18 94.9965 288 95.7845 286.912 96.6742C285.834 97.5537 284.945 98.7332 284.258 100.014C283.968 100.802 283.668 101.489 283.475 102.277C283.18 103.649 282.296 104.636 280.918 104.636H276.983C274.426 104.636 272.56 102.867 273.048 100.411C273.343 98.9366 273.836 97.5588 274.522 96.2776C275.702 93.822 277.369 91.7528 279.439 90.0853C281.508 88.4177 283.862 87.1365 286.521 86.2519C289.174 85.3724 292.027 84.9758 295.072 84.9758C298.026 84.9758 300.873 85.3724 303.628 86.1553C306.277 87.0399 308.743 88.2194 310.802 89.8921C312.866 91.5647 314.442 93.5323 315.718 95.9929C316.903 98.4383 317.493 101.387 317.493 104.631ZM306.974 113.772H293.211C289.083 113.772 285.941 114.56 283.872 116.136C281.808 117.803 280.725 119.573 280.725 121.439C280.725 123.304 281.803 125.074 283.872 126.65C285.936 128.221 289.083 129.009 293.211 129.009C295.377 129.009 297.344 128.617 299.012 127.733C300.68 126.945 302.159 125.867 303.339 124.489C304.518 123.116 305.403 121.54 306.094 119.674C306.679 117.803 306.974 115.836 306.974 113.772Z" fill="#F5F1EC"/>
<path d="M331.667 86.0483C334.814 86.0483 336.975 88.2141 336.975 91.3612V129.995C336.975 133.142 334.814 135.297 331.667 135.297C328.52 135.297 326.354 133.137 326.354 129.995V91.3612C326.359 88.2141 328.525 86.0483 331.667 86.0483Z" fill="#F5F1EC"/>
<path d="M383.6 130.569L369.533 110.721L383.59 90.8833C384.938 89.0378 384.78 87.7871 384.414 87.0601C384.043 86.328 383.102 85.4485 380.769 85.4485H378.506C376.462 85.4485 374.353 86.5212 373.122 88.204L363.366 102.043L353.61 88.1939C352.379 86.5263 350.264 85.4485 348.226 85.4485H345.968C343.63 85.4485 342.689 86.3229 342.318 87.0652C341.952 87.7871 341.794 89.0378 343.132 90.8731L357.204 110.721L343.142 130.554C341.794 132.4 341.952 133.65 342.318 134.372C342.689 135.109 343.63 135.989 345.968 135.989H348.226C350.31 135.989 352.369 134.942 353.62 133.233L363.366 119.313L373.132 133.249C374.368 134.936 376.427 135.989 378.506 135.989H380.769C383.102 135.989 384.043 135.114 384.414 134.377C384.78 133.655 384.938 132.405 383.6 130.569Z" fill="#F5F1EC"/>
<path d="M432.529 104.631V130.086C432.529 133.33 430.465 135.399 427.318 135.399H424.959C423.185 135.399 422.005 134.22 422.005 132.451V129.598C420.927 130.874 419.748 131.957 418.37 132.842C416.992 133.727 415.523 134.51 414.043 135.008C412.569 135.598 410.998 135.989 409.325 136.284C407.653 136.574 406.082 136.675 404.404 136.675C402.147 136.675 399.981 136.375 397.719 135.791C395.461 135.104 393.494 134.22 391.719 132.944C389.854 131.668 388.379 130.092 387.301 128.221C386.213 126.355 385.629 124.092 385.629 121.535C385.629 118.978 386.219 116.817 387.301 114.946C388.379 113.08 389.854 111.606 391.628 110.33C393.397 109.054 395.365 108.164 397.622 107.574C399.884 106.985 402.147 106.695 404.404 106.695H408.141C413.062 106.695 416.596 106.593 418.761 106.4C420.922 106.298 422 105.81 422 105.124V104.636C422 102.968 421.71 101.392 421.12 100.014C420.434 98.7383 419.641 97.5588 418.563 96.6742C417.485 95.7896 416.204 95.0015 414.73 94.5084C413.255 94.0203 411.781 93.7204 410.108 93.7204C408.537 93.7204 407.063 94.0152 405.685 94.5084C404.216 94.9965 403.037 95.7845 401.949 96.6742C400.871 97.5537 399.981 98.7332 399.295 100.014C399.005 100.802 398.705 101.489 398.512 102.277C398.217 103.649 397.332 104.636 395.954 104.636H392.019C389.462 104.636 387.596 102.867 388.084 100.411C388.379 98.9366 388.872 97.5588 389.559 96.2776C390.738 93.822 392.406 91.7528 394.475 90.0853C396.539 88.4177 398.898 87.1365 401.557 86.2519C404.211 85.3724 407.058 84.9758 410.108 84.9758C413.062 84.9758 415.909 85.3724 418.665 86.1553C421.314 87.0399 423.779 88.2194 425.838 89.8921C427.903 91.5647 429.473 93.5323 430.755 95.9929C431.939 98.4383 432.529 101.387 432.529 104.631ZM422.005 113.772H408.243C404.114 113.772 400.972 114.56 398.903 116.136C396.839 117.803 395.756 119.573 395.756 121.439C395.756 123.304 396.834 125.074 398.903 126.65C400.967 128.221 404.114 129.009 408.243 129.009C410.408 129.009 412.376 128.617 414.043 127.733C415.711 126.945 417.19 125.867 418.37 124.489C419.549 123.116 420.434 121.54 421.126 119.674C421.715 117.803 422.005 115.836 422.005 113.772Z" fill="#F5F1EC"/>
<path d="M464.513 84.9706C468.346 84.9706 471.885 85.5603 475.032 86.7398C478.077 88.0159 480.731 89.6937 482.998 91.951C485.256 94.2083 486.928 96.8672 488.113 100.009C489.292 103.253 489.882 106.791 489.882 110.823C489.882 114.56 489.292 118.002 488.113 121.149C486.928 124.296 485.261 127.041 483.095 129.308C480.838 131.667 478.179 133.437 475.133 134.713C471.986 136.091 468.453 136.68 464.518 136.68C460.781 136.68 457.339 136.091 454.294 134.814C451.147 133.538 448.498 131.769 446.236 129.502C443.978 127.244 442.301 124.489 441.121 121.245C439.84 118.103 439.255 114.661 439.255 110.828C439.255 107.091 439.845 103.649 441.024 100.502C442.209 97.3553 443.877 94.6099 446.037 92.2509C448.203 89.9885 450.857 88.1176 454.004 86.8415C457.044 85.5603 460.583 84.9706 464.513 84.9706ZM464.513 126.553C469.627 126.553 473.359 125.175 475.621 122.328C477.884 119.573 479.063 115.739 479.063 110.828C479.063 105.815 477.985 101.88 475.718 99.1296C473.461 96.4758 469.724 95.098 464.513 95.098C459.398 95.098 455.763 96.4757 453.506 99.2313C451.243 102.078 450.064 105.912 450.064 110.828C450.064 115.643 451.243 119.476 453.506 122.328C455.763 125.175 459.403 126.553 464.513 126.553Z" fill="#F5F1EC"/>
<path d="M417.907 69.9574C418.299 68.7829 419.234 68 420.495 68C422.066 68 423.083 69.0168 423.083 70.5115C423.083 70.8216 423.083 71.1368 422.93 71.8435C421.675 76.3124 418.299 79.2154 414.379 79.2154C411.868 79.2154 409.986 78.3511 407.556 75.9209C406.067 74.4313 405.045 73.8822 403.947 73.8822C402.299 73.8822 401.049 75.0617 400.261 77.4156C399.869 78.59 398.929 79.3781 397.673 79.3781C396.102 79.3781 395.085 78.3562 395.085 76.8666C395.085 76.5513 395.085 76.2361 395.238 75.5345C396.493 71.0606 399.869 68.1576 403.789 68.1576C406.219 68.1576 408.258 69.0219 410.688 71.4521C412.259 73.023 413.118 73.4908 414.216 73.4908C415.864 73.4857 417.119 72.3113 417.907 69.9574Z" fill="#F5F1EC"/>
<path d="M24.4288 127.034C27.5656 127.034 30.2246 126.368 32.6039 125.132C33.8393 124.466 34.9782 123.521 35.8323 122.285C37.2609 120.287 39.2538 118.579 41.8162 118.579H44.0074C46.4782 118.579 47.9018 120.196 46.9511 122.57C46.4782 123.902 45.8122 125.137 45.0496 126.276C43.621 128.559 41.8162 130.455 39.8232 131.98C37.7286 133.592 35.3544 134.736 32.7869 135.59C30.2195 136.449 27.3724 136.825 24.4237 136.825C20.814 136.825 17.484 136.256 14.5403 135.021C11.5001 133.785 8.93773 132.077 6.74651 129.886C4.56037 127.705 2.94365 125.041 1.80483 121.909C0.569406 118.864 0 115.539 0 111.832C0 108.223 0.569412 104.893 1.70824 101.852C2.85214 98.8121 4.46887 96.1532 6.55332 93.8755C8.64794 91.6843 11.2154 89.8795 14.2556 88.6441C17.1993 87.4086 20.6208 86.8392 24.4237 86.8392C30.6008 86.8392 35.7306 88.3644 39.9148 91.4047C42.8584 93.5858 45.1411 96.5345 46.6562 100.241C47.8001 103.088 46.0868 105.182 42.955 105.182H40.0063C38.5827 105.182 37.4439 104.237 36.7779 102.996C36.3966 102.234 36.0153 101.568 35.5425 100.998C33.9207 99.1934 32.309 98.0546 30.5042 97.4852C28.6994 96.9158 26.7013 96.626 24.4237 96.626C19.482 96.626 15.9639 97.958 13.7828 100.714C11.5967 103.474 10.4528 107.18 10.4528 111.832C10.4528 116.489 11.5916 120.196 13.7828 122.951C15.969 125.702 19.4871 127.034 24.4288 127.034Z" fill="#F5F1EC"/>
<path d="M75.3455 86.834C78.9551 86.834 82.2852 87.3881 85.2441 88.4965C88.1115 89.7014 90.6077 91.2774 92.743 93.4026C94.8682 95.5277 96.4391 98.029 97.5525 100.988C98.6609 104.043 99.215 107.368 99.215 111.166C99.215 114.679 98.6609 117.923 97.5525 120.882C96.4391 123.841 94.8682 126.428 92.8295 128.559C90.7043 130.775 88.203 132.443 85.3356 133.643C82.3767 134.939 79.0467 135.493 75.3455 135.493C71.8324 135.493 68.5888 134.939 65.7214 133.734C62.7625 132.529 60.2662 130.867 58.136 128.737C56.0109 126.611 54.4348 124.019 53.3265 120.963C52.1267 118.009 51.5674 114.766 51.5674 111.161C51.5674 107.648 52.1216 104.404 53.2299 101.446C54.3433 98.4866 55.9143 95.8988 57.9479 93.6771C59.9866 91.5469 62.4829 89.7878 65.4469 88.5829C68.3143 87.3881 71.6443 86.834 75.3455 86.834ZM75.3455 125.971C80.155 125.971 83.6731 124.674 85.7982 121.995C87.9285 119.402 89.0368 115.793 89.0368 111.171C89.0368 106.453 88.02 102.752 85.8898 100.164C83.7646 97.6681 80.2465 96.3716 75.3455 96.3716C70.536 96.3716 67.1144 97.6681 64.9842 100.261C62.854 102.94 61.7457 106.55 61.7457 111.176C61.7457 115.706 62.854 119.316 64.9842 122C67.1093 124.674 70.5309 125.971 75.3455 125.971Z" fill="#F5F1EC"/>
<path d="M179.543 99.6254C178.709 97.0986 177.473 94.8617 175.77 92.7518C174.128 90.8199 172.069 89.254 169.629 88.0796C167.097 86.9662 164.402 86.4272 161.398 86.4272C157.803 86.4272 154.473 87.2763 151.509 88.9489C148.835 90.5097 146.669 92.7009 145.073 95.4819C143.304 92.7213 141.138 90.5606 138.596 89.0404C135.545 87.3678 132.19 86.5238 128.626 86.5238C123.689 86.5238 119.541 88.0186 116.002 91.0842V90.4741C116.002 88.7862 114.869 87.6474 113.181 87.6474H110.278C106.902 87.6474 104.548 90.0013 104.548 93.3771V130.175C104.548 133.546 106.902 135.9 110.278 135.9C113.648 135.9 116.002 133.541 116.002 130.175V108.075C116.002 104.908 116.953 102.249 118.819 100.195C120.644 98.207 123.15 97.2359 126.475 97.2359C129.821 97.2359 132.419 98.2324 134.213 100.195C136.115 102.279 137.035 104.857 137.035 108.075V130.175C137.035 133.653 139.287 135.9 142.765 135.9C146.135 135.9 148.398 133.602 148.398 130.175V107.043L148.306 106.677C148.51 103.84 149.572 101.578 151.54 99.783C153.583 98.0036 155.948 97.1393 158.774 97.1393C162.079 97.1393 164.616 98.1154 166.517 100.103C168.383 102.147 169.334 104.806 169.334 107.984V130.079C169.334 133.449 171.688 135.803 175.064 135.803C178.434 135.803 180.788 133.444 180.788 130.079V107.984C180.798 104.882 180.387 102.147 179.543 99.6254Z" fill="#F5F1EC"/>
<path d="M200.619 29.045C198.367 29.045 196.4 30.2398 195.312 32.0345C194.224 30.2398 192.251 29.045 189.999 29.045C186.572 29.045 183.791 31.826 183.791 35.2526C183.791 35.2526 183.791 35.3391 183.796 35.4916C183.817 35.9746 183.888 36.4423 184.01 36.8897C184.615 39.4571 186.877 44.5005 195.312 48.0746C206.827 42.0805 206.771 36.4982 206.822 35.5679C206.827 35.4611 206.832 35.3594 206.832 35.2526C206.832 31.826 204.051 29.045 200.619 29.045Z" fill="#F5F1EC"/>
<path d="M232.618 37.3065C232.618 23.7271 225.364 11.8457 214.519 5.32288L205.093 14.7487C213.802 18.5312 219.898 27.2096 219.898 37.3065C219.898 50.886 208.891 61.8929 195.312 61.8929C185.21 61.8929 176.536 55.8022 172.754 47.0933L163.328 56.5191C164.696 58.7917 166.302 60.9066 168.107 62.8284L168.102 62.8233L168.158 62.8792C168.783 63.5401 169.424 64.1807 170.095 64.7959L192.999 87.4453C195.185 89.606 198.703 89.5806 200.853 87.3893C202.989 85.2185 202.973 81.7308 200.818 79.5803L195.846 74.6081C216.202 74.3183 232.618 57.7291 232.618 37.3065Z" fill="#29C6CF"/>
<path d="M170.725 37.3066C170.725 23.7272 181.732 12.7203 195.312 12.7203C195.917 12.7203 196.512 12.7406 197.101 12.7863L207.757 2.13021C203.863 0.752438 199.674 0 195.307 0C174.701 0 158 16.7011 158 37.3066C158 41.6738 158.752 45.8631 160.13 49.7524L170.786 39.0962C170.751 38.5065 170.725 37.9066 170.725 37.3066Z" fill="#F1B15F"/>
</svg>
