<svg width="1440" height="81" viewBox="0 0 1440 81" fill="none" xmlns="http://www.w3.org/2000/svg">
<path d="M41.6194 50.045C39.3672 50.045 37.3997 51.2398 36.3117 53.0345C35.2237 51.2398 33.2511 50.045 30.9989 50.045C27.5722 50.045 24.7913 52.826 24.7913 56.2526C24.7913 56.2526 24.7913 56.3391 24.7963 56.4916C24.8167 56.9746 24.8879 57.4423 25.0099 57.8897C25.6149 60.4571 27.8773 65.5005 36.3117 69.0746C47.827 63.0805 47.7711 57.4982 47.8219 56.5679C47.827 56.4611 47.8321 56.3594 47.8321 56.2526C47.8321 52.826 45.0511 50.045 41.6194 50.045Z" fill="#F5F1EC"/>
<path d="M155.619 50.045C153.367 50.045 151.4 51.2398 150.312 53.0345C149.224 51.2398 147.251 50.045 144.999 50.045C141.572 50.045 138.791 52.826 138.791 56.2526C138.791 56.2526 138.791 56.3391 138.796 56.4916C138.817 56.9746 138.888 57.4423 139.01 57.8897C139.615 60.4571 141.877 65.5005 150.312 69.0746C161.827 63.0805 161.771 57.4982 161.822 56.5679C161.827 56.4611 161.832 56.3594 161.832 56.2526C161.832 52.826 159.051 50.045 155.619 50.045Z" fill="#F5F1EC"/>
<path d="M269.619 50.045C267.367 50.045 265.4 51.2398 264.312 53.0345C263.224 51.2398 261.251 50.045 258.999 50.045C255.572 50.045 252.791 52.826 252.791 56.2526C252.791 56.2526 252.791 56.3391 252.796 56.4916C252.817 56.9746 252.888 57.4423 253.01 57.8897C253.615 60.4571 255.877 65.5005 264.312 69.0746C275.827 63.0805 275.771 57.4982 275.822 56.5679C275.827 56.4611 275.832 56.3594 275.832 56.2526C275.832 52.826 273.051 50.045 269.619 50.045Z" fill="#F5F1EC"/>
<path d="M383.619 50.045C381.367 50.045 379.4 51.2398 378.312 53.0345C377.224 51.2398 375.251 50.045 372.999 50.045C369.572 50.045 366.791 52.826 366.791 56.2526C366.791 56.2526 366.791 56.3391 366.796 56.4916C366.817 56.9746 366.888 57.4423 367.01 57.8897C367.615 60.4571 369.877 65.5005 378.312 69.0746C389.827 63.0805 389.771 57.4982 389.822 56.5679C389.827 56.4611 389.832 56.3594 389.832 56.2526C389.832 52.826 387.051 50.045 383.619 50.045Z" fill="#F5F1EC"/>
<path d="M497.619 50.045C495.367 50.045 493.4 51.2398 492.312 53.0345C491.224 51.2398 489.251 50.045 486.999 50.045C483.572 50.045 480.791 52.826 480.791 56.2526C480.791 56.2526 480.791 56.3391 480.796 56.4916C480.817 56.9746 480.888 57.4423 481.01 57.8897C481.615 60.4571 483.877 65.5005 492.312 69.0746C503.827 63.0805 503.771 57.4982 503.822 56.5679C503.827 56.4611 503.832 56.3594 503.832 56.2526C503.832 52.826 501.051 50.045 497.619 50.045Z" fill="#F5F1EC"/>
<path d="M611.619 50.045C609.367 50.045 607.4 51.2398 606.312 53.0345C605.224 51.2398 603.251 50.045 600.999 50.045C597.572 50.045 594.791 52.826 594.791 56.2526C594.791 56.2526 594.791 56.3391 594.796 56.4916C594.817 56.9746 594.888 57.4423 595.01 57.8897C595.615 60.4571 597.877 65.5005 606.312 69.0746C617.827 63.0805 617.771 57.4982 617.822 56.5679C617.827 56.4611 617.832 56.3594 617.832 56.2526C617.832 52.826 615.051 50.045 611.619 50.045Z" fill="#F5F1EC"/>
<path d="M725.619 50.045C723.367 50.045 721.4 51.2398 720.312 53.0345C719.224 51.2398 717.251 50.045 714.999 50.045C711.572 50.045 708.791 52.826 708.791 56.2526C708.791 56.2526 708.791 56.3391 708.796 56.4916C708.817 56.9746 708.888 57.4423 709.01 57.8897C709.615 60.4571 711.877 65.5005 720.312 69.0746C731.827 63.0805 731.771 57.4982 731.822 56.5679C731.827 56.4611 731.832 56.3594 731.832 56.2526C731.832 52.826 729.051 50.045 725.619 50.045Z" fill="#F5F1EC"/>
<path d="M839.619 50.045C837.367 50.045 835.4 51.2398 834.312 53.0345C833.224 51.2398 831.251 50.045 828.999 50.045C825.572 50.045 822.791 52.826 822.791 56.2526C822.791 56.2526 822.791 56.3391 822.796 56.4916C822.817 56.9746 822.888 57.4423 823.01 57.8897C823.615 60.4571 825.877 65.5005 834.312 69.0746C845.827 63.0805 845.771 57.4982 845.822 56.5679C845.827 56.4611 845.832 56.3594 845.832 56.2526C845.832 52.826 843.051 50.045 839.619 50.045Z" fill="#F5F1EC"/>
<path d="M953.619 50.045C951.367 50.045 949.4 51.2398 948.312 53.0345C947.224 51.2398 945.251 50.045 942.999 50.045C939.572 50.045 936.791 52.826 936.791 56.2526C936.791 56.2526 936.791 56.3391 936.796 56.4916C936.817 56.9746 936.888 57.4423 937.01 57.8897C937.615 60.4571 939.877 65.5005 948.312 69.0746C959.827 63.0805 959.771 57.4982 959.822 56.5679C959.827 56.4611 959.832 56.3594 959.832 56.2526C959.832 52.826 957.051 50.045 953.619 50.045Z" fill="#F5F1EC"/>
<path d="M1067.62 50.045C1065.37 50.045 1063.4 51.2398 1062.31 53.0345C1061.22 51.2398 1059.25 50.045 1057 50.045C1053.57 50.045 1050.79 52.826 1050.79 56.2526C1050.79 56.2526 1050.79 56.3391 1050.8 56.4916C1050.82 56.9746 1050.89 57.4423 1051.01 57.8897C1051.61 60.4571 1053.88 65.5005 1062.31 69.0746C1073.83 63.0805 1073.77 57.4982 1073.82 56.5679C1073.83 56.4611 1073.83 56.3594 1073.83 56.2526C1073.83 52.826 1071.05 50.045 1067.62 50.045Z" fill="#F5F1EC"/>
<path d="M1181.62 50.045C1179.37 50.045 1177.4 51.2398 1176.31 53.0345C1175.22 51.2398 1173.25 50.045 1171 50.045C1167.57 50.045 1164.79 52.826 1164.79 56.2526C1164.79 56.2526 1164.79 56.3391 1164.8 56.4916C1164.82 56.9746 1164.89 57.4423 1165.01 57.8897C1165.61 60.4571 1167.88 65.5005 1176.31 69.0746C1187.83 63.0805 1187.77 57.4982 1187.82 56.5679C1187.83 56.4611 1187.83 56.3594 1187.83 56.2526C1187.83 52.826 1185.05 50.045 1181.62 50.045Z" fill="#F5F1EC"/>
<path d="M1295.62 50.045C1293.37 50.045 1291.4 51.2398 1290.31 53.0345C1289.22 51.2398 1287.25 50.045 1285 50.045C1281.57 50.045 1278.79 52.826 1278.79 56.2526C1278.79 56.2526 1278.79 56.3391 1278.8 56.4916C1278.82 56.9746 1278.89 57.4423 1279.01 57.8897C1279.61 60.4571 1281.88 65.5005 1290.31 69.0746C1301.83 63.0805 1301.77 57.4982 1301.82 56.5679C1301.83 56.4611 1301.83 56.3594 1301.83 56.2526C1301.83 52.826 1299.05 50.045 1295.62 50.045Z" fill="#F5F1EC"/>
<path d="M1409.62 50.045C1407.37 50.045 1405.4 51.2398 1404.31 53.0345C1403.22 51.2398 1401.25 50.045 1399 50.045C1395.57 50.045 1392.79 52.826 1392.79 56.2526C1392.79 56.2526 1392.79 56.3391 1392.8 56.4916C1392.82 56.9746 1392.89 57.4423 1393.01 57.8897C1393.61 60.4571 1395.88 65.5005 1404.31 69.0746C1415.83 63.0805 1415.77 57.4982 1415.82 56.5679C1415.83 56.4611 1415.83 56.3594 1415.83 56.2526C1415.83 52.826 1413.05 50.045 1409.62 50.045Z" fill="#F5F1EC"/>
<path d="M93.0929 3.24862L93.5204 3.9539L93.948 3.24862C94.949 1.5975 96.7576 0.5 98.8281 0.5C101.984 0.5 104.541 3.05738 104.541 6.20761C104.541 6.2977 104.537 6.38459 104.532 6.49016L104.531 6.49554C104.531 6.49617 104.531 6.4968 104.531 6.49743C104.53 6.5215 104.529 6.54885 104.527 6.5794C104.504 7.10475 104.439 8.57784 103.152 10.6098C101.797 12.7502 99.0607 15.5478 93.4989 18.4764C85.3932 14.9726 83.2695 10.1244 82.7053 7.72999L82.7033 7.72151L82.701 7.71311C82.5895 7.30421 82.5237 6.87439 82.5047 6.42769C82.5023 6.35563 82.5012 6.2996 82.5006 6.26206L82.5001 6.21968L82.5 6.20973L82.5 6.20766L82.5 6.20761C82.5 6.20759 82.5 6.20757 82.5 6.20755V6.20752L82.5 6.20748V6.20741C82.5001 3.057 85.0572 0.5 88.2076 0.5C90.2786 0.5 92.0921 1.5979 93.0929 3.24862Z" stroke="#F5F1EC"/>
<path d="M207.093 3.24862L207.52 3.9539L207.948 3.24862C208.949 1.5975 210.758 0.5 212.828 0.5C215.984 0.5 218.541 3.05738 218.541 6.20761C218.541 6.2977 218.537 6.38459 218.532 6.49016L218.531 6.49554C218.531 6.49617 218.531 6.4968 218.531 6.49743C218.53 6.5215 218.529 6.54885 218.527 6.5794C218.504 7.10475 218.439 8.57784 217.152 10.6098C215.797 12.7502 213.061 15.5478 207.499 18.4764C199.393 14.9726 197.27 10.1244 196.705 7.72999L196.703 7.72151L196.701 7.71311C196.589 7.30421 196.524 6.87439 196.505 6.42769C196.502 6.35563 196.501 6.2996 196.501 6.26206L196.5 6.21968L196.5 6.20973L196.5 6.20766L196.5 6.20761C196.5 6.20759 196.5 6.20757 196.5 6.20755V6.20752L196.5 6.20748V6.20741C196.5 3.057 199.057 0.5 202.208 0.5C204.279 0.5 206.092 1.5979 207.093 3.24862Z" stroke="#F5F1EC"/>
<path d="M321.093 3.24862L321.52 3.9539L321.948 3.24862C322.949 1.5975 324.758 0.5 326.828 0.5C329.984 0.5 332.541 3.05738 332.541 6.20761C332.541 6.2977 332.537 6.38459 332.532 6.49016L332.531 6.49554C332.531 6.49617 332.531 6.4968 332.531 6.49743C332.53 6.5215 332.529 6.54885 332.527 6.5794C332.504 7.10475 332.439 8.57784 331.152 10.6098C329.797 12.7502 327.061 15.5478 321.499 18.4764C313.393 14.9726 311.27 10.1244 310.705 7.72999L310.703 7.72151L310.701 7.71311C310.589 7.30421 310.524 6.87439 310.505 6.42769C310.502 6.35563 310.501 6.2996 310.501 6.26206L310.5 6.21968L310.5 6.20973L310.5 6.20766L310.5 6.20761C310.5 6.20759 310.5 6.20757 310.5 6.20755V6.20752L310.5 6.20748V6.20741C310.5 3.057 313.057 0.5 316.208 0.5C318.279 0.5 320.092 1.5979 321.093 3.24862Z" stroke="#F5F1EC"/>
<path d="M435.093 3.24862L435.52 3.9539L435.948 3.24862C436.949 1.5975 438.758 0.5 440.828 0.5C443.984 0.5 446.541 3.05738 446.541 6.20761C446.541 6.2977 446.537 6.38459 446.532 6.49016L446.531 6.49554C446.531 6.49617 446.531 6.4968 446.531 6.49743C446.53 6.5215 446.529 6.54885 446.527 6.5794C446.504 7.10475 446.439 8.57784 445.152 10.6098C443.797 12.7502 441.061 15.5478 435.499 18.4764C427.393 14.9726 425.27 10.1244 424.705 7.72999L424.703 7.72151L424.701 7.71311C424.589 7.30421 424.524 6.87439 424.505 6.42769C424.502 6.35563 424.501 6.2996 424.501 6.26206L424.5 6.21968L424.5 6.20973L424.5 6.20766L424.5 6.20761C424.5 6.20759 424.5 6.20757 424.5 6.20755V6.20752L424.5 6.20748V6.20741C424.5 3.057 427.057 0.5 430.208 0.5C432.279 0.5 434.092 1.5979 435.093 3.24862Z" stroke="#F5F1EC"/>
<path d="M549.093 3.24862L549.52 3.9539L549.948 3.24862C550.949 1.5975 552.758 0.5 554.828 0.5C557.984 0.5 560.541 3.05738 560.541 6.20761C560.541 6.2977 560.537 6.38459 560.532 6.49016L560.531 6.49554C560.531 6.49617 560.531 6.4968 560.531 6.49743C560.53 6.5215 560.529 6.54885 560.527 6.5794C560.504 7.10475 560.439 8.57784 559.152 10.6098C557.797 12.7502 555.061 15.5478 549.499 18.4764C541.393 14.9726 539.27 10.1244 538.705 7.72999L538.703 7.72151L538.701 7.71311C538.589 7.30421 538.524 6.87439 538.505 6.42769C538.502 6.35563 538.501 6.2996 538.501 6.26206L538.5 6.21968L538.5 6.20973L538.5 6.20766L538.5 6.20761C538.5 6.20759 538.5 6.20757 538.5 6.20755V6.20752L538.5 6.20748V6.20741C538.5 3.057 541.057 0.5 544.208 0.5C546.279 0.5 548.092 1.5979 549.093 3.24862Z" stroke="#F5F1EC"/>
<path d="M663.093 3.24862L663.52 3.9539L663.948 3.24862C664.949 1.5975 666.758 0.5 668.828 0.5C671.984 0.5 674.541 3.05738 674.541 6.20761C674.541 6.2977 674.537 6.38459 674.532 6.49016L674.531 6.49554C674.531 6.49617 674.531 6.4968 674.531 6.49743C674.53 6.5215 674.529 6.54885 674.527 6.5794C674.504 7.10475 674.439 8.57784 673.152 10.6098C671.797 12.7502 669.061 15.5478 663.499 18.4764C655.393 14.9726 653.27 10.1244 652.705 7.72999L652.703 7.72151L652.701 7.71311C652.589 7.30421 652.524 6.87439 652.505 6.42769C652.502 6.35563 652.501 6.2996 652.501 6.26206L652.5 6.21968L652.5 6.20973L652.5 6.20766L652.5 6.20761C652.5 6.20759 652.5 6.20757 652.5 6.20755V6.20752L652.5 6.20748V6.20741C652.5 3.057 655.057 0.5 658.208 0.5C660.279 0.5 662.092 1.5979 663.093 3.24862Z" stroke="#F5F1EC"/>
<path d="M777.093 3.24862L777.52 3.9539L777.948 3.24862C778.949 1.5975 780.758 0.5 782.828 0.5C785.984 0.5 788.541 3.05738 788.541 6.20761C788.541 6.2977 788.537 6.38459 788.532 6.49016L788.531 6.49554C788.531 6.49617 788.531 6.4968 788.531 6.49743C788.53 6.5215 788.529 6.54885 788.527 6.5794C788.504 7.10475 788.439 8.57784 787.152 10.6098C785.797 12.7502 783.061 15.5478 777.499 18.4764C769.393 14.9726 767.27 10.1244 766.705 7.72999L766.703 7.72151L766.701 7.71311C766.589 7.30421 766.524 6.87439 766.505 6.42769C766.502 6.35563 766.501 6.2996 766.501 6.26206L766.5 6.21968L766.5 6.20973L766.5 6.20766L766.5 6.20761C766.5 6.20759 766.5 6.20757 766.5 6.20755V6.20752L766.5 6.20748V6.20741C766.5 3.057 769.057 0.5 772.208 0.5C774.279 0.5 776.092 1.5979 777.093 3.24862Z" stroke="#F5F1EC"/>
<path d="M891.093 3.24862L891.52 3.9539L891.948 3.24862C892.949 1.5975 894.758 0.5 896.828 0.5C899.984 0.5 902.541 3.05738 902.541 6.20761C902.541 6.2977 902.537 6.38459 902.532 6.49016L902.531 6.49554C902.531 6.49617 902.531 6.4968 902.531 6.49743C902.53 6.5215 902.529 6.54885 902.527 6.5794C902.504 7.10475 902.439 8.57784 901.152 10.6098C899.797 12.7502 897.061 15.5478 891.499 18.4764C883.393 14.9726 881.27 10.1244 880.705 7.72999L880.703 7.72151L880.701 7.71311C880.589 7.30421 880.524 6.87439 880.505 6.42769C880.502 6.35563 880.501 6.2996 880.501 6.26206L880.5 6.21968L880.5 6.20973L880.5 6.20766L880.5 6.20761C880.5 6.20759 880.5 6.20757 880.5 6.20755V6.20752L880.5 6.20748V6.20741C880.5 3.057 883.057 0.5 886.208 0.5C888.279 0.5 890.092 1.5979 891.093 3.24862Z" stroke="#F5F1EC"/>
<path d="M1005.09 3.24862L1005.52 3.9539L1005.95 3.24862C1006.95 1.5975 1008.76 0.5 1010.83 0.5C1013.98 0.5 1016.54 3.05738 1016.54 6.20761C1016.54 6.2977 1016.54 6.38459 1016.53 6.49016L1016.53 6.49554C1016.53 6.49617 1016.53 6.4968 1016.53 6.49743C1016.53 6.5215 1016.53 6.54885 1016.53 6.5794C1016.5 7.10475 1016.44 8.57784 1015.15 10.6098C1013.8 12.7502 1011.06 15.5478 1005.5 18.4764C997.393 14.9726 995.27 10.1244 994.705 7.72999L994.703 7.72151L994.701 7.71311C994.589 7.30421 994.524 6.87439 994.505 6.42769C994.502 6.35563 994.501 6.2996 994.501 6.26206L994.5 6.21968L994.5 6.20973L994.5 6.20766L994.5 6.20761C994.5 6.20759 994.5 6.20757 994.5 6.20755V6.20752L994.5 6.20748V6.20741C994.5 3.057 997.057 0.5 1000.21 0.5C1002.28 0.5 1004.09 1.5979 1005.09 3.24862Z" stroke="#F5F1EC"/>
<path d="M1119.09 3.24862L1119.52 3.9539L1119.95 3.24862C1120.95 1.5975 1122.76 0.5 1124.83 0.5C1127.98 0.5 1130.54 3.05738 1130.54 6.20761C1130.54 6.2977 1130.54 6.38459 1130.53 6.49016L1130.53 6.49554C1130.53 6.49617 1130.53 6.4968 1130.53 6.49743C1130.53 6.5215 1130.53 6.54885 1130.53 6.5794C1130.5 7.10475 1130.44 8.57784 1129.15 10.6098C1127.8 12.7502 1125.06 15.5478 1119.5 18.4764C1111.39 14.9726 1109.27 10.1244 1108.71 7.72999L1108.7 7.72151L1108.7 7.71311C1108.59 7.30421 1108.52 6.87439 1108.5 6.42769C1108.5 6.35563 1108.5 6.2996 1108.5 6.26206L1108.5 6.21968L1108.5 6.20973L1108.5 6.20766L1108.5 6.20761C1108.5 6.20759 1108.5 6.20757 1108.5 6.20755V6.20752L1108.5 6.20748V6.20741C1108.5 3.057 1111.06 0.5 1114.21 0.5C1116.28 0.5 1118.09 1.5979 1119.09 3.24862Z" stroke="#F5F1EC"/>
<path d="M1233.09 3.24862L1233.52 3.9539L1233.95 3.24862C1234.95 1.5975 1236.76 0.5 1238.83 0.5C1241.98 0.5 1244.54 3.05738 1244.54 6.20761C1244.54 6.2977 1244.54 6.38459 1244.53 6.49016L1244.53 6.49554C1244.53 6.49617 1244.53 6.4968 1244.53 6.49743C1244.53 6.5215 1244.53 6.54885 1244.53 6.5794C1244.5 7.10475 1244.44 8.57784 1243.15 10.6098C1241.8 12.7502 1239.06 15.5478 1233.5 18.4764C1225.39 14.9726 1223.27 10.1244 1222.71 7.72999L1222.7 7.72151L1222.7 7.71311C1222.59 7.30421 1222.52 6.87439 1222.5 6.42769C1222.5 6.35563 1222.5 6.2996 1222.5 6.26206L1222.5 6.21968L1222.5 6.20973L1222.5 6.20766L1222.5 6.20761C1222.5 6.20759 1222.5 6.20757 1222.5 6.20755V6.20752L1222.5 6.20748V6.20741C1222.5 3.057 1225.06 0.5 1228.21 0.5C1230.28 0.5 1232.09 1.5979 1233.09 3.24862Z" stroke="#F5F1EC"/>
<path d="M1347.09 3.24862L1347.52 3.9539L1347.95 3.24862C1348.95 1.5975 1350.76 0.5 1352.83 0.5C1355.98 0.5 1358.54 3.05738 1358.54 6.20761C1358.54 6.2977 1358.54 6.38459 1358.53 6.49016L1358.53 6.49554C1358.53 6.49617 1358.53 6.4968 1358.53 6.49743C1358.53 6.5215 1358.53 6.54885 1358.53 6.5794C1358.5 7.10475 1358.44 8.57784 1357.15 10.6098C1355.8 12.7502 1353.06 15.5478 1347.5 18.4764C1339.39 14.9726 1337.27 10.1244 1336.71 7.72999L1336.7 7.72151L1336.7 7.71311C1336.59 7.30421 1336.52 6.87439 1336.5 6.42769C1336.5 6.35563 1336.5 6.2996 1336.5 6.26206L1336.5 6.21968L1336.5 6.20973L1336.5 6.20766L1336.5 6.20761C1336.5 6.20759 1336.5 6.20757 1336.5 6.20755V6.20752L1336.5 6.20748V6.20741C1336.5 3.057 1339.06 0.5 1342.21 0.5C1344.28 0.5 1346.09 1.5979 1347.09 3.24862Z" stroke="#F5F1EC"/>
<path d="M73.6184 58.3065C73.6184 44.7271 66.3635 32.8457 55.5193 26.3229L46.0935 35.7487C54.8024 39.5312 60.8982 48.2096 60.8982 58.3065C60.8982 71.886 49.8912 82.8929 36.3118 82.8929C26.2098 82.8929 17.5365 76.8022 13.7539 68.0933L4.32812 77.5191C5.69573 79.7917 7.30229 81.9066 9.10712 83.8284L9.10203 83.8233L9.15796 83.8792C9.78329 84.5401 10.4239 85.1807 11.095 85.7959L33.9985 108.445C36.1847 110.606 39.7028 110.581 41.8534 108.389C43.9887 106.218 43.9734 102.731 41.8178 100.58L36.8456 95.6081C57.2021 95.3183 73.6184 78.7291 73.6184 58.3065Z" fill="#29C6CF"/>
<path d="M187.618 58.3065C187.618 44.7271 180.364 32.8457 169.519 26.3229L160.093 35.7487C168.802 39.5312 174.898 48.2096 174.898 58.3065C174.898 71.886 163.891 82.8929 150.312 82.8929C140.21 82.8929 131.536 76.8022 127.754 68.0933L118.328 77.5191C119.696 79.7917 121.302 81.9066 123.107 83.8284L123.102 83.8233L123.158 83.8792C123.783 84.5401 124.424 85.1807 125.095 85.7959L147.999 108.445C150.185 110.606 153.703 110.581 155.853 108.389C157.989 106.218 157.973 102.731 155.818 100.58L150.846 95.6081C171.202 95.3183 187.618 78.7291 187.618 58.3065Z" fill="#29C6CF"/>
<path d="M301.618 58.3065C301.618 44.7271 294.364 32.8457 283.519 26.3229L274.093 35.7487C282.802 39.5312 288.898 48.2096 288.898 58.3065C288.898 71.886 277.891 82.8929 264.312 82.8929C254.21 82.8929 245.536 76.8022 241.754 68.0933L232.328 77.5191C233.696 79.7917 235.302 81.9066 237.107 83.8284L237.102 83.8233L237.158 83.8792C237.783 84.5401 238.424 85.1807 239.095 85.7959L261.999 108.445C264.185 110.606 267.703 110.581 269.853 108.389C271.989 106.218 271.973 102.731 269.818 100.58L264.846 95.6081C285.202 95.3183 301.618 78.7291 301.618 58.3065Z" fill="#29C6CF"/>
<path d="M415.618 58.3065C415.618 44.7271 408.364 32.8457 397.519 26.3229L388.093 35.7487C396.802 39.5312 402.898 48.2096 402.898 58.3065C402.898 71.886 391.891 82.8929 378.312 82.8929C368.21 82.8929 359.536 76.8022 355.754 68.0933L346.328 77.5191C347.696 79.7917 349.302 81.9066 351.107 83.8284L351.102 83.8233L351.158 83.8792C351.783 84.5401 352.424 85.1807 353.095 85.7959L375.999 108.445C378.185 110.606 381.703 110.581 383.853 108.389C385.989 106.218 385.973 102.731 383.818 100.58L378.846 95.6081C399.202 95.3183 415.618 78.7291 415.618 58.3065Z" fill="#29C6CF"/>
<path d="M529.618 58.3065C529.618 44.7271 522.364 32.8457 511.519 26.3229L502.093 35.7487C510.802 39.5312 516.898 48.2096 516.898 58.3065C516.898 71.886 505.891 82.8929 492.312 82.8929C482.21 82.8929 473.536 76.8022 469.754 68.0933L460.328 77.5191C461.696 79.7917 463.302 81.9066 465.107 83.8284L465.102 83.8233L465.158 83.8792C465.783 84.5401 466.424 85.1807 467.095 85.7959L489.999 108.445C492.185 110.606 495.703 110.581 497.853 108.389C499.989 106.218 499.973 102.731 497.818 100.58L492.846 95.6081C513.202 95.3183 529.618 78.7291 529.618 58.3065Z" fill="#29C6CF"/>
<path d="M643.618 58.3065C643.618 44.7271 636.364 32.8457 625.519 26.3229L616.093 35.7487C624.802 39.5312 630.898 48.2096 630.898 58.3065C630.898 71.886 619.891 82.8929 606.312 82.8929C596.21 82.8929 587.536 76.8022 583.754 68.0933L574.328 77.5191C575.696 79.7917 577.302 81.9066 579.107 83.8284L579.102 83.8233L579.158 83.8792C579.783 84.5401 580.424 85.1807 581.095 85.7959L603.999 108.445C606.185 110.606 609.703 110.581 611.853 108.389C613.989 106.218 613.973 102.731 611.818 100.58L606.846 95.6081C627.202 95.3183 643.618 78.7291 643.618 58.3065Z" fill="#29C6CF"/>
<path d="M757.618 58.3065C757.618 44.7271 750.364 32.8457 739.519 26.3229L730.093 35.7487C738.802 39.5312 744.898 48.2096 744.898 58.3065C744.898 71.886 733.891 82.8929 720.312 82.8929C710.21 82.8929 701.536 76.8022 697.754 68.0933L688.328 77.5191C689.696 79.7917 691.302 81.9066 693.107 83.8284L693.102 83.8233L693.158 83.8792C693.783 84.5401 694.424 85.1807 695.095 85.7959L717.999 108.445C720.185 110.606 723.703 110.581 725.853 108.389C727.989 106.218 727.973 102.731 725.818 100.58L720.846 95.6081C741.202 95.3183 757.618 78.7291 757.618 58.3065Z" fill="#29C6CF"/>
<path d="M871.618 58.3065C871.618 44.7271 864.364 32.8457 853.519 26.3229L844.093 35.7487C852.802 39.5312 858.898 48.2096 858.898 58.3065C858.898 71.886 847.891 82.8929 834.312 82.8929C824.21 82.8929 815.536 76.8022 811.754 68.0933L802.328 77.5191C803.696 79.7917 805.302 81.9066 807.107 83.8284L807.102 83.8233L807.158 83.8792C807.783 84.5401 808.424 85.1807 809.095 85.7959L831.999 108.445C834.185 110.606 837.703 110.581 839.853 108.389C841.989 106.218 841.973 102.731 839.818 100.58L834.846 95.6081C855.202 95.3183 871.618 78.7291 871.618 58.3065Z" fill="#29C6CF"/>
<path d="M985.618 58.3065C985.618 44.7271 978.364 32.8457 967.519 26.3229L958.093 35.7487C966.802 39.5312 972.898 48.2096 972.898 58.3065C972.898 71.886 961.891 82.8929 948.312 82.8929C938.21 82.8929 929.536 76.8022 925.754 68.0933L916.328 77.5191C917.696 79.7917 919.302 81.9066 921.107 83.8284L921.102 83.8233L921.158 83.8792C921.783 84.5401 922.424 85.1807 923.095 85.7959L945.999 108.445C948.185 110.606 951.703 110.581 953.853 108.389C955.989 106.218 955.973 102.731 953.818 100.58L948.846 95.6081C969.202 95.3183 985.618 78.7291 985.618 58.3065Z" fill="#29C6CF"/>
<path d="M1099.62 58.3065C1099.62 44.7271 1092.36 32.8457 1081.52 26.3229L1072.09 35.7487C1080.8 39.5312 1086.9 48.2096 1086.9 58.3065C1086.9 71.886 1075.89 82.8929 1062.31 82.8929C1052.21 82.8929 1043.54 76.8022 1039.75 68.0933L1030.33 77.5191C1031.7 79.7917 1033.3 81.9066 1035.11 83.8284L1035.1 83.8233L1035.16 83.8792C1035.78 84.5401 1036.42 85.1807 1037.09 85.7959L1060 108.445C1062.18 110.606 1065.7 110.581 1067.85 108.389C1069.99 106.218 1069.97 102.731 1067.82 100.58L1062.85 95.6081C1083.2 95.3183 1099.62 78.7291 1099.62 58.3065Z" fill="#29C6CF"/>
<path d="M1213.62 58.3065C1213.62 44.7271 1206.36 32.8457 1195.52 26.3229L1186.09 35.7487C1194.8 39.5312 1200.9 48.2096 1200.9 58.3065C1200.9 71.886 1189.89 82.8929 1176.31 82.8929C1166.21 82.8929 1157.54 76.8022 1153.75 68.0933L1144.33 77.5191C1145.7 79.7917 1147.3 81.9066 1149.11 83.8284L1149.1 83.8233L1149.16 83.8792C1149.78 84.5401 1150.42 85.1807 1151.09 85.7959L1174 108.445C1176.18 110.606 1179.7 110.581 1181.85 108.389C1183.99 106.218 1183.97 102.731 1181.82 100.58L1176.85 95.6081C1197.2 95.3183 1213.62 78.7291 1213.62 58.3065Z" fill="#29C6CF"/>
<path d="M1327.62 58.3065C1327.62 44.7271 1320.36 32.8457 1309.52 26.3229L1300.09 35.7487C1308.8 39.5312 1314.9 48.2096 1314.9 58.3065C1314.9 71.886 1303.89 82.8929 1290.31 82.8929C1280.21 82.8929 1271.54 76.8022 1267.75 68.0933L1258.33 77.5191C1259.7 79.7917 1261.3 81.9066 1263.11 83.8284L1263.1 83.8233L1263.16 83.8792C1263.78 84.5401 1264.42 85.1807 1265.09 85.7959L1288 108.445C1290.18 110.606 1293.7 110.581 1295.85 108.389C1297.99 106.218 1297.97 102.731 1295.82 100.58L1290.85 95.6081C1311.2 95.3183 1327.62 78.7291 1327.62 58.3065Z" fill="#29C6CF"/>
<path d="M1441.62 58.3065C1441.62 44.7271 1434.36 32.8457 1423.52 26.3229L1414.09 35.7487C1422.8 39.5312 1428.9 48.2096 1428.9 58.3065C1428.9 71.886 1417.89 82.8929 1404.31 82.8929C1394.21 82.8929 1385.54 76.8022 1381.75 68.0933L1372.33 77.5191C1373.7 79.7917 1375.3 81.9066 1377.11 83.8284L1377.1 83.8233L1377.16 83.8792C1377.78 84.5401 1378.42 85.1807 1379.09 85.7959L1402 108.445C1404.18 110.606 1407.7 110.581 1409.85 108.389C1411.99 106.218 1411.97 102.731 1409.82 100.58L1404.85 95.6081C1425.2 95.3183 1441.62 78.7291 1441.62 58.3065Z" fill="#29C6CF"/>
<path d="M11.7253 58.3066C11.7253 44.7272 22.7323 33.7203 36.3117 33.7203C36.9167 33.7203 37.5116 33.7406 38.1013 33.7863L48.7574 23.1302C44.8631 21.7524 40.6738 21 36.3066 21C15.7011 21 -1 37.7011 -1 58.3066C-1 62.6738 -0.247562 66.8631 1.13021 70.7524L11.7863 60.0962C11.7508 59.5065 11.7253 58.9066 11.7253 58.3066Z" fill="#F1B15F"/>
<path d="M125.725 58.3066C125.725 44.7272 136.732 33.7203 150.312 33.7203C150.917 33.7203 151.512 33.7406 152.101 33.7863L162.757 23.1302C158.863 21.7524 154.674 21 150.307 21C129.701 21 113 37.7011 113 58.3066C113 62.6738 113.752 66.8631 115.13 70.7524L125.786 60.0962C125.751 59.5065 125.725 58.9066 125.725 58.3066Z" fill="#F1B15F"/>
<path d="M239.725 58.3066C239.725 44.7272 250.732 33.7203 264.312 33.7203C264.917 33.7203 265.512 33.7406 266.101 33.7863L276.757 23.1302C272.863 21.7524 268.674 21 264.307 21C243.701 21 227 37.7011 227 58.3066C227 62.6738 227.752 66.8631 229.13 70.7524L239.786 60.0962C239.751 59.5065 239.725 58.9066 239.725 58.3066Z" fill="#F1B15F"/>
<path d="M353.725 58.3066C353.725 44.7272 364.732 33.7203 378.312 33.7203C378.917 33.7203 379.512 33.7406 380.101 33.7863L390.757 23.1302C386.863 21.7524 382.674 21 378.307 21C357.701 21 341 37.7011 341 58.3066C341 62.6738 341.752 66.8631 343.13 70.7524L353.786 60.0962C353.751 59.5065 353.725 58.9066 353.725 58.3066Z" fill="#F1B15F"/>
<path d="M467.725 58.3066C467.725 44.7272 478.732 33.7203 492.312 33.7203C492.917 33.7203 493.512 33.7406 494.101 33.7863L504.757 23.1302C500.863 21.7524 496.674 21 492.307 21C471.701 21 455 37.7011 455 58.3066C455 62.6738 455.752 66.8631 457.13 70.7524L467.786 60.0962C467.751 59.5065 467.725 58.9066 467.725 58.3066Z" fill="#F1B15F"/>
<path d="M581.725 58.3066C581.725 44.7272 592.732 33.7203 606.312 33.7203C606.917 33.7203 607.512 33.7406 608.101 33.7863L618.757 23.1302C614.863 21.7524 610.674 21 606.307 21C585.701 21 569 37.7011 569 58.3066C569 62.6738 569.752 66.8631 571.13 70.7524L581.786 60.0962C581.751 59.5065 581.725 58.9066 581.725 58.3066Z" fill="#F1B15F"/>
<path d="M695.725 58.3066C695.725 44.7272 706.732 33.7203 720.312 33.7203C720.917 33.7203 721.512 33.7406 722.101 33.7863L732.757 23.1302C728.863 21.7524 724.674 21 720.307 21C699.701 21 683 37.7011 683 58.3066C683 62.6738 683.752 66.8631 685.13 70.7524L695.786 60.0962C695.751 59.5065 695.725 58.9066 695.725 58.3066Z" fill="#F1B15F"/>
<path d="M809.725 58.3066C809.725 44.7272 820.732 33.7203 834.312 33.7203C834.917 33.7203 835.512 33.7406 836.101 33.7863L846.757 23.1302C842.863 21.7524 838.674 21 834.307 21C813.701 21 797 37.7011 797 58.3066C797 62.6738 797.752 66.8631 799.13 70.7524L809.786 60.0962C809.751 59.5065 809.725 58.9066 809.725 58.3066Z" fill="#F1B15F"/>
<path d="M923.725 58.3066C923.725 44.7272 934.732 33.7203 948.312 33.7203C948.917 33.7203 949.512 33.7406 950.101 33.7863L960.757 23.1302C956.863 21.7524 952.674 21 948.307 21C927.701 21 911 37.7011 911 58.3066C911 62.6738 911.752 66.8631 913.13 70.7524L923.786 60.0962C923.751 59.5065 923.725 58.9066 923.725 58.3066Z" fill="#F1B15F"/>
<path d="M1037.73 58.3066C1037.73 44.7272 1048.73 33.7203 1062.31 33.7203C1062.92 33.7203 1063.51 33.7406 1064.1 33.7863L1074.76 23.1302C1070.86 21.7524 1066.67 21 1062.31 21C1041.7 21 1025 37.7011 1025 58.3066C1025 62.6738 1025.75 66.8631 1027.13 70.7524L1037.79 60.0962C1037.75 59.5065 1037.73 58.9066 1037.73 58.3066Z" fill="#F1B15F"/>
<path d="M1151.73 58.3066C1151.73 44.7272 1162.73 33.7203 1176.31 33.7203C1176.92 33.7203 1177.51 33.7406 1178.1 33.7863L1188.76 23.1302C1184.86 21.7524 1180.67 21 1176.31 21C1155.7 21 1139 37.7011 1139 58.3066C1139 62.6738 1139.75 66.8631 1141.13 70.7524L1151.79 60.0962C1151.75 59.5065 1151.73 58.9066 1151.73 58.3066Z" fill="#F1B15F"/>
<path d="M1265.73 58.3066C1265.73 44.7272 1276.73 33.7203 1290.31 33.7203C1290.92 33.7203 1291.51 33.7406 1292.1 33.7863L1302.76 23.1302C1298.86 21.7524 1294.67 21 1290.31 21C1269.7 21 1253 37.7011 1253 58.3066C1253 62.6738 1253.75 66.8631 1255.13 70.7524L1265.79 60.0962C1265.75 59.5065 1265.73 58.9066 1265.73 58.3066Z" fill="#F1B15F"/>
<path d="M1379.73 58.3066C1379.73 44.7272 1390.73 33.7203 1404.31 33.7203C1404.92 33.7203 1405.51 33.7406 1406.1 33.7863L1416.76 23.1302C1412.86 21.7524 1408.67 21 1404.31 21C1383.7 21 1367 37.7011 1367 58.3066C1367 62.6738 1367.75 66.8631 1369.13 70.7524L1379.79 60.0962C1379.75 59.5065 1379.73 58.9066 1379.73 58.3066Z" fill="#F1B15F"/>
</svg>
