<svg width="87" height="87" viewBox="0 0 87 87" fill="none" xmlns="http://www.w3.org/2000/svg">
<circle cx="43.6661" cy="43.3625" r="43.1532" fill="#29C6CF"/>
<circle cx="43.666" cy="43.3625" r="36.5864" fill="#F5F1EC"/>
<path d="M47.3863 36.6696C45.9315 36.6696 44.6605 37.4414 43.9577 38.6007C43.2549 37.4414 41.9806 36.6696 40.5257 36.6696C38.3122 36.6696 36.5157 38.4661 36.5157 40.6796C36.5157 40.6796 36.5158 40.7354 36.519 40.8339C36.5322 41.1459 36.5781 41.4481 36.657 41.7371C37.0478 43.3956 38.5092 46.6535 43.9577 48.9623C51.3963 45.0902 51.3602 41.4842 51.393 40.8832C51.3963 40.8142 51.3996 40.7486 51.3996 40.6796C51.3996 38.4661 49.6032 36.6696 47.3863 36.6696Z" fill="#FF6C58"/>
<path d="M68.057 42.0063C68.057 33.2343 63.3705 25.5592 56.3654 21.3456L50.2766 27.4344C55.9023 29.8778 59.8401 35.4839 59.8401 42.0063C59.8401 50.7783 52.7298 57.8885 43.9578 57.8885C37.4322 57.8885 31.8294 53.9541 29.386 48.3283L23.2971 54.4172C24.1806 55.8852 25.2184 57.2514 26.3842 58.4928L26.381 58.4895L26.4171 58.5257C26.821 58.9526 27.2348 59.3664 27.6683 59.7638L42.4635 74.3947C43.8757 75.7905 46.1484 75.7741 47.5376 74.3586C48.9169 72.9563 48.9071 70.7033 47.5146 69.3141L44.3027 66.1022C57.4525 65.915 68.057 55.1988 68.057 42.0063Z" fill="#29C6CF"/>
<path d="M28.0755 42.0064C28.0755 33.2344 35.1857 26.1242 43.9577 26.1242C44.3486 26.1242 44.7328 26.1373 45.1138 26.1669L51.9974 19.2832C49.4817 18.3932 46.7756 17.9072 43.9545 17.9072C30.6437 17.9072 19.8552 28.6957 19.8552 42.0064C19.8552 44.8275 20.3413 47.5336 21.2313 50.046L28.1149 43.1624C28.0919 42.7815 28.0755 42.3939 28.0755 42.0064Z" fill="#F1B15F"/>
</svg>
